<svg width="48" height="48" viewBox="0 0 48 48" fill="none" xmlns="http://www.w3.org/2000/svg">
<path d="M11.7 44.25C11.7 44.25 17.175 41.4 22.875 42.525C28.2 43.575 28.35 40.275 31.2 40.275C34.05 40.275 33.6 37.725 35.775 37.875C35.775 37.875 36.75 37.95 36.75 38.925C36.75 38.925 34.95 39 34.2 40.425C33.45 41.85 29.25 41.7 27.6 43.35C25.575 45.375 19.875 44.025 17.475 44.25C15.6 44.475 13.35 46.5 10.125 46.5L11.7 44.25Z" fill="#3E4347"/>
<path d="M20.4751 40.2C20.4751 40.2 23.9251 40.05 25.9501 41.55C28.0501 43.05 29.5501 44.925 32.1751 44.025C34.8001 43.125 37.2751 42.45 40.1251 43.35C40.1251 43.35 40.5001 42.825 40.4251 42.225C40.4251 42.225 38.6251 41.175 36.5251 41.625C34.4251 42.075 32.3251 43.275 30.9751 42.825C29.6251 42.375 26.7751 39.3 22.2001 39.3L20.4751 40.2Z" fill="#3E4347"/>
<path d="M41.8499 43.275C41.9249 43.125 41.9249 42.975 41.8499 42.975L39.3749 42.075L39.1499 42.6L41.6249 43.5C41.6249 43.5 41.7749 43.425 41.8499 43.275Z" fill="#3E4347"/>
<path d="M10.7251 28.1999C10.7251 28.1999 6.67506 14.4749 20.5501 9.97488C32.8501 6.07489 28.8001 17.5499 10.7251 28.1999Z" fill="#C94747"/>
<path d="M20.55 7.94998C14.1 24.6 9.67497 24.15 12.675 30L13.8 44.85C13.8 44.85 15.825 43.65 20.625 40.875C24.225 38.775 31.35 38.25 36.15 35.4C44.625 30.45 49.5 22.875 44.625 14.325C39.75 5.84998 25.95 -6.07502 20.55 7.94998Z" fill="#ED4C5C"/>
<path d="M18.3 32.0999C15.9 27.8999 12.15 25.5749 9.89995 26.8499L3.07495 30.8249L11.7 46.1249L18.525 42.1499C20.775 40.7999 20.7 36.2999 18.3 32.0999Z" fill="#C94747"/>
<path d="M11.5499 36.075C13.9499 40.275 14.0249 44.775 11.7749 46.125C9.52491 47.475 5.77491 45.075 3.37491 40.875C0.97491 36.675 0.89991 32.175 3.14991 30.825C5.39991 29.55 9.14991 31.875 11.5499 36.075Z" fill="#3E4347"/>
<path d="M10.2 36.8251C11.925 39.9001 12.075 43.1251 10.575 44.0251C9.075 44.9251 6.375 43.2001 4.65 40.1251C2.925 37.0501 2.775 33.8251 4.275 32.9251C5.85 32.0251 8.475 33.8251 10.2 36.8251Z" fill="#ED4C5C"/>
<path d="M10.2 36.825C8.77501 34.275 6.67501 32.625 5.10001 32.7C4.80001 34.125 5.25001 36.3 6.45001 38.4C7.87501 40.95 9.97501 42.6 11.55 42.525C11.85 41.1 11.4 38.925 10.2 36.825Z" fill="#C94747"/>
<path d="M29.025 4.4999C31.275 3.1499 38.475 8.5499 41.775 14.3249C45.075 20.0999 39.9 21.2249 36.6 15.4499C33.375 9.5999 25.35 6.5999 29.025 4.4999Z" fill="#FF717F"/>
<path d="M19.6501 10.3501C19.6501 10.3501 18.1501 17.4001 12.9751 23.1751C12.9751 23.1751 16.2751 17.9251 17.4751 11.2501L19.6501 10.3501Z" fill="#3E4347"/>
<path d="M22.5 7.42505C25.05 6.67505 22.575 4.57505 24 2.92505C22.65 3.97505 20.925 5.47505 20.25 7.95005C16.8 21.075 11.775 22.3501 11.7 26.5501C12.6 25.9501 14.55 24.0751 16.8 24.6751C20.025 25.5751 13.125 21.3 16.95 21.825C20.85 22.275 15.375 19.05 18.9 18.825C22.425 18.6 15.9 15.075 20.475 15.15C25.05 15.225 17.85 12.075 23.1 11.775C28.35 11.325 19.35 8.32505 22.5 7.42505Z" fill="#C94747"/>
<path d="M6.75 29.925C8.775 30.825 10.875 32.85 12.45 35.55C14.025 38.325 14.625 41.1 14.4 43.35L18.075 41.175C19.575 40.275 19.725 36.525 17.475 32.55C15.6 29.25 12.975 27.45 11.4 27.45C11.025 27.45 10.8 27.525 10.5 27.675L6.75 29.925Z" fill="white"/>
<path d="M38.2499 38.0251C38.2499 37.8751 38.1749 37.7251 38.0999 37.7251L35.3999 38.2501L35.4749 38.8501L38.0999 38.4001C38.1749 38.3251 38.2499 38.1751 38.2499 38.0251Z" fill="#3E4347"/>
</svg>
