<svg width="64" height="64" viewBox="0 0 64 64" fill="none" xmlns="http://www.w3.org/2000/svg">
<path d="M18.6667 21.8334H19.1667V21.3334V16.0001C19.1667 12.5965 20.5188 9.33226 22.9255 6.92554C25.3323 4.51883 28.5965 3.16675 32.0001 3.16675C33.6854 3.16675 35.3542 3.49869 36.9112 4.14363C38.4682 4.78856 39.8829 5.73386 41.0746 6.92554C42.2663 8.11723 43.2116 9.53197 43.8565 11.089C44.5015 12.646 44.8334 14.3148 44.8334 16.0001V21.3334V21.8334H45.3334H48.0001C49.282 21.8334 50.5113 22.3426 51.4178 23.2491C52.3242 24.1555 52.8334 25.3849 52.8334 26.6667V53.3334C52.8334 54.6153 52.3242 55.8447 51.4178 56.7511C50.5113 57.6575 49.282 58.1667 48.0001 58.1667H16.0001C14.7182 58.1667 13.4888 57.6575 12.5824 56.7511C11.676 55.8447 11.1667 54.6153 11.1667 53.3334V26.6667C11.1667 25.3849 11.676 24.1555 12.5824 23.2491C13.4888 22.3426 14.7182 21.8334 16.0001 21.8334H18.6667ZM23.5001 21.3334V21.8334H24.0001H40.0001H40.5001V21.3334V16.0001C40.5001 13.7457 39.6045 11.5837 38.0105 9.98967C36.4164 8.39562 34.2544 7.50008 32.0001 7.50008C29.7457 7.50008 27.5837 8.39562 25.9897 9.98967C24.3956 11.5837 23.5001 13.7457 23.5001 16.0001V21.3334ZM32.0001 45.8334C33.5472 45.8334 35.0309 45.2188 36.1249 44.1249C37.2188 43.0309 37.8334 41.5472 37.8334 40.0001C37.8334 38.453 37.2188 36.9693 36.1249 35.8753C35.0309 34.7813 33.5472 34.1667 32.0001 34.1667C30.453 34.1667 28.9693 34.7813 27.8753 35.8753C26.7813 36.9693 26.1667 38.453 26.1667 40.0001C26.1667 41.5472 26.7813 43.0309 27.8753 44.1249C28.9693 45.2188 30.453 45.8334 32.0001 45.8334Z" fill="#14AE5C" stroke="black"/>
</svg>
