<svg width="64" height="64" viewBox="0 0 64 64" fill="none" xmlns="http://www.w3.org/2000/svg">
<path d="M52.8333 43.593V26.6667C52.8333 25.3849 52.3241 24.1555 51.4176 23.2491C50.5112 22.3426 49.2818 21.8334 48 21.8334H45.3333H44.8333V21.3334V16.0001C44.8333 8.9163 39.0839 3.16687 32.0002 3.16675L52.8333 43.593ZM52.8333 43.593L31.0737 21.8334H40H40.5V21.3334V16.0001C40.5 11.2973 36.7028 7.50008 32 7.50008C27.8496 7.50008 24.4034 10.5016 23.6383 14.4426L20.2144 10.9769C21.1729 8.71481 22.763 6.77382 24.7974 5.38834C26.921 3.94205 29.4306 3.16799 32 3.16675L52.8333 43.593ZM55.5733 59.9063L52.2468 56.5799L51.8742 56.2072L51.5216 56.5989C50.6527 57.5644 49.3994 58.1667 48 58.1667H16C13.3161 58.1667 11.1666 56.0173 11.1666 53.3334V26.6667C11.1666 25.3849 11.6759 24.1555 12.5823 23.2491C13.4887 22.3426 14.7181 21.8334 16 21.8334H16.2933H17.5004L16.6468 20.9799L3.66846 8.00147L6.37182 5.31923L58.2529 57.2267L55.5733 59.9063ZM37.4004 42.1517L37.5159 41.849L37.2868 41.6199L30.3802 34.7132L30.1511 34.4841L29.8484 34.5996C27.626 35.4476 26.1666 37.5549 26.1666 40.0001C26.1666 41.5472 26.7812 43.0309 27.8752 44.1249C28.9691 45.2188 30.4529 45.8334 32 45.8334C34.4452 45.8334 36.5524 44.3741 37.4004 42.1517Z" fill="#ED4C5C" stroke="black"/>
</svg>
